<?xml version="1.0" ?><!DOCTYPE svg  PUBLIC '-//W3C//DTD SVG 1.1//EN'  'http://www.w3.org/Graphics/SVG/1.1/DTD/svg11.dtd'><svg enable-background="new 0 0 128 128" height="128px" id="Layer_1" version="1.1" viewBox="0 0 128 128" width="128px" xml:space="preserve" xmlns="http://www.w3.org/2000/svg" xmlns:xlink="http://www.w3.org/1999/xlink"><g><path d="M80.574,51.173c0.005-0.038,0.022-0.071,0.022-0.11V34.941c0-9.151-7.445-16.597-16.597-16.597   S47.403,25.79,47.403,34.941v16.122c0,0.039,0.018,0.072,0.022,0.11c-9.007,5.573-15.022,15.538-15.022,26.886   c0,17.422,14.174,31.597,31.597,31.597S95.597,95.48,95.597,78.059C95.597,66.711,89.581,56.746,80.574,51.173z M49.403,34.941   c0-8.049,6.548-14.597,14.597-14.597s14.597,6.548,14.597,14.597v15.108c-4.369-2.287-9.333-3.587-14.597-3.587   s-10.228,1.301-14.597,3.587V34.941z M64,107.655c-16.319,0-29.597-13.276-29.597-29.597c0-16.32,13.277-29.597,29.597-29.597   s29.597,13.277,29.597,29.597C93.597,94.379,80.319,107.655,64,107.655z" fill="#2BACE2"/><path d="M64,76.63c-2.485,0-4.507,2.022-4.507,4.507c0,2.141,1.503,3.929,3.507,4.387v10.39c0,0.552,0.447,1,1,1   s1-0.448,1-1v-10.39c2.004-0.458,3.507-2.246,3.507-4.387C68.507,78.652,66.485,76.63,64,76.63z M64,83.644   c-1.382,0-2.507-1.124-2.507-2.507S62.618,78.63,64,78.63s2.507,1.124,2.507,2.507S65.382,83.644,64,83.644z" fill="#2BACE2"/></g></svg>