<?xml version="1.0" ?><svg id="Layer_1" style="enable-background:new 0 0 128 128;" version="1.1" viewBox="0 0 128 128" xml:space="preserve" xmlns="http://www.w3.org/2000/svg" xmlns:xlink="http://www.w3.org/1999/xlink"><style type="text/css">
	.st0{fill:#0A0A0A;}
</style><g id="Layer_1_1_"/><g><path class="st0" d="M91,1H38c-2.8,0-5,2.2-5,5v116c0,2.8,2.2,5,5,5h53c2.8,0,5-2.2,5-5V6C96,3.2,93.8,1,91,1z M94,122   c0,1.7-1.3,3-3,3H38c-1.7,0-3-1.3-3-3v-13h59V122z M94,107H35V21h59V107z M94,19H35V6c0-1.7,1.3-3,3-3h53c1.7,0,3,1.3,3,3V19z"/><path class="st0" d="M73,10H55c-0.6,0-1,0.4-1,1s0.4,1,1,1h18c0.6,0,1-0.4,1-1S73.6,10,73,10z"/><path class="st0" d="M64,123c3.3,0,6-2.7,6-6s-2.7-6-6-6s-6,2.7-6,6S60.7,123,64,123z M64,113c2.2,0,4,1.8,4,4s-1.8,4-4,4   c-2.2,0-4-1.8-4-4S61.8,113,64,113z"/></g></svg>